<svg width="12" height="10" viewBox="0 0 12 10" fill="none" xmlns="http://www.w3.org/2000/svg">
<path d="M11.4014 8.87381H3.37709C3.04637 8.87381 2.77832 8.60576 2.77832 8.27504C2.77832 7.94432 3.04637 7.67627 3.37709 7.67627H11.4012C11.732 7.67627 12 7.94432 12 8.27504C12 8.60576 11.7322 8.87381 11.4014 8.87381Z" fill="#6B7280"/>
<path d="M11.4014 5.11503H3.37709C3.04637 5.11503 2.77832 4.84698 2.77832 4.51625C2.77832 4.18553 3.04637 3.91748 3.37709 3.91748H11.4012C11.732 3.91748 12 4.18553 12 4.51625C12.0002 4.84698 11.7322 5.11503 11.4014 5.11503Z" fill="#6B7280"/>
<path d="M11.4014 1.35672H3.37709C3.04637 1.35672 2.77832 1.08867 2.77832 0.757952C2.77832 0.42723 3.04637 0.15918 3.37709 0.15918H11.4012C11.732 0.15918 12 0.42723 12 0.757952C12 1.08867 11.7322 1.35672 11.4014 1.35672Z" fill="#6B7280"/>
<path d="M0.804151 1.6083C1.24827 1.6083 1.6083 1.24827 1.6083 0.804152C1.6083 0.360031 1.24827 0 0.804151 0C0.360031 0 0 0.360031 0 0.804152C0 1.24827 0.360031 1.6083 0.804151 1.6083Z" fill="#6B7280"/>
<path d="M0.804151 5.3207C1.24827 5.3207 1.6083 4.96067 1.6083 4.51655C1.6083 4.07243 1.24827 3.7124 0.804151 3.7124C0.360031 3.7124 0 4.07243 0 4.51655C0 4.96067 0.360031 5.3207 0.804151 5.3207Z" fill="#6B7280"/>
<path d="M0.804151 9.03262C1.24827 9.03262 1.6083 8.67259 1.6083 8.22847C1.6083 7.78435 1.24827 7.42432 0.804151 7.42432C0.360031 7.42432 0 7.78435 0 8.22847C0 8.67259 0.360031 9.03262 0.804151 9.03262Z" fill="#6B7280"/>
</svg>
