<svg width="12" height="11" viewBox="0 0 12 11" fill="none" xmlns="http://www.w3.org/2000/svg">
<path d="M11.543 0.434127C11.3975 0.290495 11.2255 0.178148 11.0369 0.103717C10.8484 0.029286 10.6472 -0.00572148 10.4452 0.00076051C8.72024 0.0593788 7.31649 0.443342 6.27025 1.14267C6.1898 1.19642 6.09581 1.22504 5.99975 1.22504C5.90369 1.22504 5.8097 1.19642 5.72925 1.14267C4.68376 0.443598 3.27926 0.0596349 1.55427 0.00101659C1.3523 -0.00583858 1.15104 0.0289975 0.962492 0.10345C0.773942 0.177902 0.601956 0.290448 0.456776 0.434383C0.311752 0.577053 0.1965 0.748363 0.117993 0.937949C0.0394862 1.12754 -0.000644656 1.33146 2.83722e-05 1.53738V8.2063C-0.00236959 8.60432 0.14732 8.98752 0.417127 9.27406C0.686934 9.5606 1.05547 9.72776 1.44402 9.73985C2.96901 9.79105 4.23801 10.1366 5.21675 10.7696C5.45164 10.9202 5.72315 11 6.00025 11C6.27735 11 6.54886 10.9202 6.78375 10.7696C7.76199 10.1366 9.03124 9.79028 10.556 9.73985C10.9445 9.72776 11.3131 9.5606 11.5829 9.27406C11.8527 8.98752 12.0024 8.60432 12 8.2063V1.53738C12.0006 1.3314 11.9605 1.12741 11.8819 0.93778C11.8034 0.748146 11.6881 0.576805 11.543 0.434127ZM1.47627 8.7162C1.34817 8.70997 1.2273 8.65357 1.13866 8.55867C1.05003 8.46376 1.00039 8.33762 1.00002 8.2063V1.53738C0.999877 1.46874 1.01331 1.40078 1.03952 1.33761C1.06573 1.27443 1.10417 1.21735 1.15252 1.1698C1.24671 1.07592 1.37307 1.02354 1.50452 1.02389H1.52152C3.06051 1.07509 4.29226 1.40453 5.1825 1.99941C5.28185 2.06449 5.38844 2.11717 5.5 2.15633V9.75598C4.26126 9.07959 2.88013 8.72269 1.47627 8.7162ZM11 8.2063C10.9996 8.33741 10.9502 8.46337 10.8618 8.55824C10.7734 8.65311 10.6529 8.70965 10.525 8.7162C9.12066 8.72241 7.73903 9.07941 6.5 9.75623V2.15658C6.61152 2.11732 6.7181 2.06465 6.8175 1.99967C7.70774 1.40478 8.93949 1.07637 10.4782 1.02415C10.5463 1.02089 10.6142 1.03215 10.6778 1.05722C10.7414 1.0823 10.7992 1.12063 10.8475 1.1698C10.8958 1.21735 10.9343 1.27443 10.9605 1.33761C10.9867 1.40078 11.0001 1.46874 11 1.53738V8.2063Z" fill="#171717"/>
</svg>
