<svg width="5" height="20" viewBox="0 0 5 20" fill="none" xmlns="http://www.w3.org/2000/svg">
<path d="M2.22224 4.44448C3.44955 4.44448 4.44448 3.44955 4.44448 2.22224C4.44448 0.994931 3.44955 0 2.22224 0C0.994931 0 0 0.994931 0 2.22224C0 3.44955 0.994931 4.44448 2.22224 4.44448Z" fill="white"/>
<path d="M2.22224 12.2222C3.44955 12.2222 4.44448 11.2273 4.44448 9.99995C4.44448 8.77264 3.44955 7.77771 2.22224 7.77771C0.994931 7.77771 0 8.77264 0 9.99995C0 11.2273 0.994931 12.2222 2.22224 12.2222Z" fill="white"/>
<path d="M2.22224 20C3.44955 20 4.44448 19.0051 4.44448 17.7778C4.44448 16.5505 3.44955 15.5555 2.22224 15.5555C0.994931 15.5555 0 16.5505 0 17.7778C0 19.0051 0.994931 20 2.22224 20Z" fill="white"/>
</svg>
