<svg width="144" height="24" viewBox="0 0 144 24" fill="none" xmlns="http://www.w3.org/2000/svg">
<circle cx="12" cy="12" r="12" fill="#F9FAFB"/>
<path d="M17.9739 10.5293C17.9428 10.4283 17.8856 10.3382 17.8085 10.2694C17.7314 10.2005 17.6376 10.1555 17.5375 10.1393L14.0521 9.60868L12.4888 6.29783C12.4392 6.20731 12.3677 6.13212 12.2815 6.07983C12.1953 6.02753 12.0975 6 11.9979 6C11.8983 6 11.8005 6.02753 11.7143 6.07983C11.6281 6.13212 11.5566 6.20731 11.507 6.29783L9.95248 9.60868L6.46706 10.1393C6.36632 10.1547 6.27168 10.1993 6.19385 10.2681C6.11602 10.3368 6.05811 10.4271 6.02667 10.5286C5.99523 10.6301 5.99151 10.7388 6.01593 10.8424C6.04036 10.946 6.09196 11.0404 6.16488 11.1149L8.68704 13.6915L8.09141 17.3306C8.07434 17.4358 8.08573 17.544 8.12429 17.6429C8.16285 17.7417 8.22704 17.8273 8.30959 17.8898C8.39155 17.9531 8.48895 17.9908 8.5905 17.9985C8.69205 18.0062 8.79361 17.9836 8.8834 17.9333L12.0001 16.2155L15.1179 17.931C15.2079 17.9805 15.3093 18.0027 15.4107 17.995C15.5121 17.9873 15.6094 17.9501 15.6917 17.8875C15.7742 17.825 15.8384 17.7394 15.877 17.6406C15.9156 17.5417 15.9269 17.4336 15.9099 17.3283L15.3142 13.6892L17.8364 11.1126C17.9087 11.0383 17.9598 10.9444 17.9841 10.8414C18.0084 10.7384 18.0048 10.6303 17.9739 10.5293Z" fill="#6B7280"/>
<circle cx="42" cy="12" r="12" fill="#F9FAFB"/>
<path d="M47.9739 10.5293C47.9428 10.4283 47.8856 10.3382 47.8085 10.2694C47.7314 10.2005 47.6376 10.1555 47.5375 10.1393L44.0521 9.60868L42.4888 6.29783C42.4392 6.20731 42.3677 6.13212 42.2815 6.07983C42.1953 6.02753 42.0975 6 41.9979 6C41.8983 6 41.8005 6.02753 41.7143 6.07983C41.6281 6.13212 41.5566 6.20731 41.507 6.29783L39.9525 9.60868L36.4671 10.1393C36.3663 10.1547 36.2717 10.1993 36.1938 10.2681C36.116 10.3368 36.0581 10.4271 36.0267 10.5286C35.9952 10.6301 35.9915 10.7388 36.0159 10.8424C36.0404 10.946 36.092 11.0404 36.1649 11.1149L38.687 13.6915L38.0914 17.3306C38.0743 17.4358 38.0857 17.544 38.1243 17.6429C38.1628 17.7417 38.227 17.8273 38.3096 17.8898C38.3915 17.9531 38.4889 17.9908 38.5905 17.9985C38.6921 18.0062 38.7936 17.9836 38.8834 17.9333L42.0001 16.2155L45.1179 17.931C45.2079 17.9805 45.3093 18.0027 45.4107 17.995C45.5121 17.9873 45.6094 17.9501 45.6917 17.8875C45.7742 17.825 45.8384 17.7394 45.877 17.6406C45.9156 17.5417 45.9269 17.4336 45.9099 17.3283L45.3142 13.6892L47.8364 11.1126C47.9087 11.0383 47.9598 10.9444 47.9841 10.8414C48.0084 10.7384 48.0048 10.6303 47.9739 10.5293Z" fill="#6B7280"/>
<circle cx="72" cy="12" r="12" fill="#F9FAFB"/>
<path d="M77.9739 10.5293C77.9428 10.4283 77.8856 10.3382 77.8085 10.2694C77.7314 10.2005 77.6376 10.1555 77.5375 10.1393L74.0521 9.60868L72.4888 6.29783C72.4392 6.20731 72.3677 6.13212 72.2815 6.07983C72.1953 6.02753 72.0975 6 71.9979 6C71.8983 6 71.8005 6.02753 71.7143 6.07983C71.6281 6.13212 71.5566 6.20731 71.507 6.29783L69.9525 9.60868L66.4671 10.1393C66.3663 10.1547 66.2717 10.1993 66.1938 10.2681C66.116 10.3368 66.0581 10.4271 66.0267 10.5286C65.9952 10.6301 65.9915 10.7388 66.0159 10.8424C66.0404 10.946 66.092 11.0404 66.1649 11.1149L68.687 13.6915L68.0914 17.3306C68.0743 17.4358 68.0857 17.544 68.1243 17.6429C68.1628 17.7417 68.227 17.8273 68.3096 17.8898C68.3915 17.9531 68.4889 17.9908 68.5905 17.9985C68.6921 18.0062 68.7936 17.9836 68.8834 17.9333L72.0001 16.2155L75.1179 17.931C75.2079 17.9805 75.3093 18.0027 75.4107 17.995C75.5121 17.9873 75.6094 17.9501 75.6917 17.8875C75.7742 17.825 75.8384 17.7394 75.877 17.6406C75.9156 17.5417 75.9269 17.4336 75.9099 17.3283L75.3142 13.6892L77.8364 11.1126C77.9087 11.0383 77.9598 10.9444 77.9841 10.8414C78.0084 10.7384 78.0048 10.6303 77.9739 10.5293Z" fill="#6B7280"/>
<circle cx="102" cy="12" r="12" fill="#F9FAFB"/>
<path d="M107.974 10.5293C107.943 10.4283 107.886 10.3382 107.808 10.2694C107.731 10.2005 107.638 10.1555 107.537 10.1393L104.052 9.60868L102.489 6.29783C102.439 6.20731 102.368 6.13212 102.282 6.07983C102.195 6.02753 102.097 6 101.998 6C101.898 6 101.801 6.02753 101.714 6.07983C101.628 6.13212 101.557 6.20731 101.507 6.29783L99.9525 9.60868L96.4671 10.1393C96.3663 10.1547 96.2717 10.1993 96.1938 10.2681C96.116 10.3368 96.0581 10.4271 96.0267 10.5286C95.9952 10.6301 95.9915 10.7388 96.0159 10.8424C96.0404 10.946 96.092 11.0404 96.1649 11.1149L98.687 13.6915L98.0914 17.3306C98.0743 17.4358 98.0857 17.544 98.1243 17.6429C98.1628 17.7417 98.227 17.8273 98.3096 17.8898C98.3915 17.9531 98.4889 17.9908 98.5905 17.9985C98.6921 18.0062 98.7936 17.9836 98.8834 17.9333L102 16.2155L105.118 17.931C105.208 17.9805 105.309 18.0027 105.411 17.995C105.512 17.9873 105.609 17.9501 105.692 17.8875C105.774 17.825 105.838 17.7394 105.877 17.6406C105.916 17.5417 105.927 17.4336 105.91 17.3283L105.314 13.6892L107.836 11.1126C107.909 11.0383 107.96 10.9444 107.984 10.8414C108.008 10.7384 108.005 10.6303 107.974 10.5293Z" fill="#6B7280"/>
<circle cx="132" cy="12" r="12" fill="#F9FAFB"/>
<path d="M137.974 10.5293C137.943 10.4283 137.886 10.3382 137.808 10.2694C137.731 10.2005 137.638 10.1555 137.537 10.1393L134.052 9.60868L132.489 6.29783C132.439 6.20731 132.368 6.13212 132.282 6.07983C132.195 6.02753 132.097 6 131.998 6C131.898 6 131.801 6.02753 131.714 6.07983C131.628 6.13212 131.557 6.20731 131.507 6.29783L129.952 9.60868L126.467 10.1393C126.366 10.1547 126.272 10.1993 126.194 10.2681C126.116 10.3368 126.058 10.4271 126.027 10.5286C125.995 10.6301 125.992 10.7388 126.016 10.8424C126.04 10.946 126.092 11.0404 126.165 11.1149L128.687 13.6915L128.091 17.3306C128.074 17.4358 128.086 17.544 128.124 17.6429C128.163 17.7417 128.227 17.8273 128.31 17.8898C128.392 17.9531 128.489 17.9908 128.591 17.9985C128.692 18.0062 128.794 17.9836 128.883 17.9333L132 16.2155L135.118 17.931C135.208 17.9805 135.309 18.0027 135.411 17.995C135.512 17.9873 135.609 17.9501 135.692 17.8875C135.774 17.825 135.838 17.7394 135.877 17.6406C135.916 17.5417 135.927 17.4336 135.91 17.3283L135.314 13.6892L137.836 11.1126C137.909 11.0383 137.96 10.9444 137.984 10.8414C138.008 10.7384 138.005 10.6303 137.974 10.5293Z" fill="#6B7280"/>
</svg>
