<svg width="12" height="11" viewBox="0 0 12 11" fill="none" xmlns="http://www.w3.org/2000/svg">
<path d="M11.543 0.434249C11.3975 0.290617 11.2255 0.17827 11.0369 0.103839C10.8484 0.0294081 10.6472 -0.00559941 10.4452 0.00088258C8.72024 0.0595009 7.31649 0.443464 6.27025 1.14279C6.1898 1.19654 6.09581 1.22516 5.99975 1.22516C5.90369 1.22516 5.8097 1.19654 5.72925 1.14279C4.68376 0.44372 3.27926 0.059757 1.55427 0.00113866C1.3523 -0.00571651 1.15104 0.0291196 0.962492 0.103572C0.773942 0.178024 0.601956 0.29057 0.456776 0.434505C0.311752 0.577175 0.1965 0.748485 0.117993 0.938071C0.0394862 1.12766 -0.000644656 1.33158 2.83722e-05 1.5375V8.20642C-0.00236959 8.60444 0.14732 8.98764 0.417127 9.27418C0.686934 9.56072 1.05547 9.72789 1.44402 9.73997C2.96901 9.79117 4.23801 10.1367 5.21675 10.7698C5.45164 10.9203 5.72315 11.0001 6.00025 11.0001C6.27735 11.0001 6.54886 10.9203 6.78375 10.7698C7.76199 10.1367 9.03124 9.7904 10.556 9.73997C10.9445 9.72789 11.3131 9.56072 11.5829 9.27418C11.8527 8.98764 12.0024 8.60444 12 8.20642V1.5375C12.0006 1.33152 11.9605 1.12754 11.8819 0.937902C11.8034 0.748268 11.6881 0.576927 11.543 0.434249ZM1.47627 8.71633C1.34817 8.71009 1.2273 8.65369 1.13866 8.55879C1.05003 8.46389 1.00039 8.33774 1.00002 8.20642V1.5375C0.999877 1.46886 1.01331 1.4009 1.03952 1.33773C1.06573 1.27455 1.10417 1.21747 1.15252 1.16992C1.24671 1.07604 1.37307 1.02366 1.50452 1.02402H1.52152C3.06051 1.07521 4.29226 1.40465 5.1825 1.99954C5.28185 2.06462 5.38844 2.11729 5.5 2.15645V9.7561C4.26126 9.07972 2.88013 8.72282 1.47627 8.71633ZM11 8.20642C10.9996 8.33753 10.9502 8.4635 10.8618 8.55836C10.7734 8.65323 10.6529 8.70977 10.525 8.71633C9.12066 8.72253 7.73903 9.07954 6.5 9.75635V2.15671C6.61152 2.11744 6.7181 2.06477 6.8175 1.99979C7.70774 1.40491 8.93949 1.07649 10.4782 1.02427C10.5463 1.02101 10.6142 1.03227 10.6778 1.05735C10.7414 1.08242 10.7992 1.12076 10.8475 1.16992C10.8958 1.21747 10.9343 1.27455 10.9605 1.33773C10.9867 1.4009 11.0001 1.46886 11 1.5375V8.20642Z" fill="#171717"/>
</svg>
