<svg width="236" height="30" viewBox="0 0 236 30" fill="none" xmlns="http://www.w3.org/2000/svg">
<path d="M38.7134 29.9852C43.3409 30.233 47.5093 27.2526 48.6985 22.8479C49.7415 18.1028 47.4246 14.9137 42.1374 11.876C40.4828 10.9264 40.4006 10.0917 40.5545 9.4082C40.6327 8.80039 41.2495 8.23171 42.4451 8.23171C43.8139 8.4181 45.0584 9.12485 45.9199 10.2051L51.2462 5.5748C50.1159 4.22122 48.6978 3.13708 47.0953 2.40146C45.4929 1.66585 43.7465 1.29731 41.9835 1.32272C37.6638 1.06055 33.7431 3.7944 32.5657 7.88997C31.5617 12.3312 33.8396 15.8242 38.8569 18.7367C40.7084 19.8376 40.9026 20.7493 40.7475 21.584C40.6387 22.0339 40.3731 22.4302 39.9983 22.7016C39.6235 22.973 39.1642 23.1016 38.703 23.0644C36.0014 23.0644 33.8787 19.9902 33.8787 19.9902L28.3203 24.177C30.4899 27.7913 34.4459 30.0034 38.7134 29.9852ZM67.1364 1.31359C68.357 1.25458 69.5751 1.47269 70.6993 1.95157C71.8236 2.43045 72.825 3.15767 73.6284 4.07875C74.4185 4.98618 74.9847 6.06647 75.2813 7.2327C75.578 8.39893 75.5969 9.61853 75.3365 10.7934C74.4889 15.6402 69.9919 19.0497 64.9759 18.6493H61.7671L59.5584 28.6952H51.2462L57.2766 1.31359H67.1364ZM65.8221 8.09997H64.0919L63.2418 12.0651H65.1363C66.2798 12.1173 67.2799 11.3216 67.4559 10.2156L67.4442 10.226C67.5107 9.96466 67.5134 9.69114 67.4521 9.42851C67.3909 9.16587 67.2674 8.92182 67.0921 8.71691C66.9138 8.50895 66.6897 8.34513 66.4375 8.23832C66.1852 8.13151 65.9117 8.0846 65.6383 8.10127L65.8221 8.09997ZM84.9355 29.9813C91.0428 30.323 96.3783 25.9248 97.1593 19.9054L101.143 1.30446H92.7457L88.958 18.9754C88.6059 20.7193 87.748 21.6101 86.2629 21.6101C84.2719 21.6101 83.7529 20.4102 84.1154 18.8971L87.864 1.30446H79.4671L75.8424 18.4328C74.2451 25.99 78.8034 29.9813 84.9355 29.9813ZM118.604 1.31228C119.792 1.25681 120.978 1.47113 122.072 1.93916C123.166 2.4072 124.139 3.11682 124.92 4.01484C125.689 4.90101 126.241 5.95475 126.531 7.09202C126.821 8.22929 126.841 9.41862 126.59 10.5651C126.056 13.612 123.979 16.1868 121.076 17.3998L125.736 28.6952H116.951L113.068 18.2711L110.782 28.6952H102.492L108.413 1.31228H118.604ZM116.913 8.1104H115.867L114.788 13.059H116.219C117.642 13.1425 118.903 12.1681 119.15 10.7921C119.247 10.4644 119.262 10.1178 119.192 9.78315C119.123 9.44855 118.971 9.13643 118.751 8.87474C118.304 8.33996 117.617 8.05301 116.913 8.1104Z" fill="#2FACD6"/>
<path d="M149.692 1.30469H128.465L126.766 8.9741H133.211L128.927 28.6954H137.225L141.508 8.9741H147.993L149.692 1.30469Z" fill="#2FACD6"/>
<path d="M164.595 29.9785C169.185 30.2224 173.609 28.2712 176.477 24.7404L170.46 19.9939C169.814 20.7147 169.023 21.2904 168.139 21.6831C167.254 22.0759 166.297 22.2768 165.329 22.2726C164.4 22.2627 163.485 22.0424 162.653 21.628C161.821 21.2137 161.094 20.6163 160.526 19.8805C159.965 19.1519 159.58 18.303 159.403 17.4006C159.226 16.4982 159.26 15.567 159.503 14.6801C160.047 11.4128 162.918 9.01677 166.282 9.0233C168.838 9.04286 171.105 10.6367 171.954 13.0093L179.36 9.78241C177.488 4.66817 172.538 1.27432 167.015 1.31736C159.347 1.01737 152.644 6.36248 151.352 13.8062C150.92 15.7559 150.938 17.7781 151.403 19.7199C151.869 21.6617 152.77 23.4722 154.038 25.0143C155.321 26.5717 156.933 27.8248 158.759 28.6833C160.584 29.5418 162.578 29.9841 164.595 29.9785ZM179.36 29.9994H187.263L190.027 19.8296L194.355 29.2559L202.446 20.7296L201.083 29.9994H208.946L213.073 0L196.683 16.3105L187.958 0L179.36 29.9994ZM223.45 29.985C228.084 30.2381 232.261 27.2564 233.451 22.8478C234.494 18.1014 232.177 14.9123 226.887 11.8758C225.231 10.9263 225.149 10.0915 225.304 9.40807C225.381 8.80026 225.999 8.23157 227.195 8.23157C228.564 8.4179 229.809 9.12463 230.671 10.205L236 5.57467C234.869 4.22082 233.45 3.13657 231.846 2.40097C230.243 1.66536 228.496 1.29695 226.732 1.32258C222.412 1.06041 218.489 3.79427 217.31 7.88984C216.306 12.3311 218.586 15.824 223.606 18.7366C225.458 19.8374 225.653 20.7478 225.496 21.5839C225.387 22.034 225.121 22.4305 224.746 22.7019C224.371 22.9733 223.912 23.1018 223.45 23.0643C220.747 23.0643 218.623 19.9887 218.623 19.9887L213.074 24.1756C215.24 27.7847 219.189 29.9942 223.45 29.985Z" fill="#2FACD6"/>
<path d="M24.7305 16.6695H10.2262C9.96914 16.6292 9.73478 16.4986 9.56514 16.3012C9.39551 16.1038 9.30169 15.8524 9.30049 15.5921C9.30049 15.0586 9.69165 14.6034 10.2262 14.516H24.7305C24.9873 14.5563 25.2215 14.6866 25.3911 14.8838C25.5607 15.0809 25.6547 15.332 25.6562 15.5921C25.6547 15.8522 25.5607 16.1033 25.3911 16.3004C25.2215 16.4976 24.9873 16.6292 24.7305 16.6695ZM27.17 3.74494H10.3762C10.179 3.75527 9.98267 3.71227 9.80784 3.62046C9.63301 3.52866 9.48612 3.39143 9.38263 3.22321C9.28066 3.05631 9.22671 2.86449 9.22671 2.66888C9.22671 2.47327 9.28066 2.28145 9.38263 2.11454C9.48612 1.94632 9.63301 1.8091 9.80784 1.71729C9.98267 1.62549 10.179 1.58249 10.3762 1.59281H27.17C27.3672 1.58249 27.5635 1.62549 27.7383 1.71729C27.9132 1.8091 28.06 1.94632 28.1635 2.11454C28.3722 2.45627 28.3722 2.88148 28.1635 3.22321C28.06 3.39143 27.9132 3.52866 27.7383 3.62046C27.5635 3.71227 27.3672 3.75527 27.17 3.74494ZM22.9207 10.2065H1.04049C0.762099 10.1952 0.498761 10.0771 0.305051 9.87674C0.111342 9.6764 0.00211175 9.40919 0 9.13049C0 8.55658 0.456354 8.08312 1.04049 8.05442H22.9194C23.1978 8.0658 23.4611 8.1839 23.6548 8.38423C23.8485 8.58456 23.9578 8.85178 23.9599 9.13049C23.9599 9.70439 23.5035 10.1779 22.9207 10.2065Z" fill="#2FACD6"/>
</svg>
