<svg width="34" height="32" viewBox="0 0 34 32" fill="none" xmlns="http://www.w3.org/2000/svg">
<path d="M22.7143 1H4.42857C3.51926 1 2.64719 1.36123 2.0042 2.0042C1.36123 2.64719 1 3.51926 1 4.42857V15.8571C1 16.7664 1.36123 17.6385 2.0042 18.2815C2.64719 18.9245 3.51926 19.2857 4.42857 19.2857H7.85714V26.1428L14.7143 19.2857H22.7143C23.6236 19.2857 24.4956 18.9245 25.1386 18.2815C25.7816 17.6385 26.1429 16.7664 26.1429 15.8571V4.42857C26.1429 3.51926 25.7816 2.64719 25.1386 2.0042C24.4956 1.36123 23.6236 1 22.7143 1Z" stroke="#6B7280" stroke-width="1.5" stroke-linecap="round" stroke-linejoin="round"/>
<path d="M5.79993 6.71387H21.7999" stroke="#6B7280" stroke-width="1.5" stroke-miterlimit="10" stroke-linecap="round" stroke-linejoin="round"/>
<path d="M5.79993 11.2856H14.9428" stroke="#6B7280" stroke-width="1.5" stroke-miterlimit="10" stroke-linecap="round" stroke-linejoin="round"/>
<path d="M12.4286 24.3145H19.2857L26.1429 31.1716V24.3145H29.5714C30.4807 24.3145 31.3528 23.9533 31.9958 23.3103C32.6388 22.6674 33 21.7952 33 20.8859V9.45736C33 8.54806 32.6388 7.67599 31.9958 7.033C31.3528 6.39001 30.4807 6.02881 29.5714 6.02881H28.4286" stroke="#6B7280" stroke-width="1.5" stroke-linecap="round" stroke-linejoin="round"/>
</svg>
