<svg width="10" height="10" viewBox="0 0 10 10" fill="none" xmlns="http://www.w3.org/2000/svg">
<g clip-path="url(#clip0_263_480)">
<path d="M2.90645 0.625C1.43524 0.625 0.625 1.43472 0.625 2.905V7.09C0.625 8.56351 1.43524 9.375 2.90645 9.375H7.09354C8.56475 9.375 9.37498 8.56528 9.37498 7.095V2.90328C9.37697 2.18121 9.17574 1.59671 8.79306 1.21297C8.40946 0.82832 7.82351 0.625 7.09854 0.625H2.90645ZM2.90645 0H7.09854C8.91944 0 10.005 1.085 9.99998 2.905V7.095C9.99998 8.915 8.91444 10 7.09354 10H2.90645C1.08554 10 0 8.915 0 7.09V2.905C0 1.085 1.08554 0 2.90645 0Z" fill="#6B7280"/>
</g>
<defs>
<clipPath id="clip0_263_480">
<rect width="10" height="10" fill="white"/>
</clipPath>
</defs>
</svg>
